<?xml version="1.0" encoding="utf-8"?>
<!-- Svg Vector Icons : http://www.onlinewebfonts.com/icon -->
<!DOCTYPE svg PUBLIC "-//W3C//DTD SVG 1.1//EN" "http://www.w3.org/Graphics/SVG/1.1/DTD/svg11.dtd">
<svg version="1.1" xmlns="http://www.w3.org/2000/svg" xmlns:xlink="http://www.w3.org/1999/xlink" x="0px" y="0px" viewBox="0 0 1000 1000" enable-background="new 0 0 1000 1000" xml:space="preserve">
<metadata> Svg Vector Icons : http://www.onlinewebfonts.com/icon </metadata>
<g><g transform="translate(0.000000,511.000000) scale(0.100000,-0.100000)"><path d="M4912.6,4125.1v-884.9h102.1h102.1v884.9V5010h-102.1h-102.1V4125.1z"/><path d="M3015.7,4583.4l-70.3-38.6l70.3-152l70.3-149.8l86.2,34c45.4,18.1,84,45.4,84,56.7c0,49.9-120.3,290.4-145.2,290.4C3097.4,4622,3054.3,4603.8,3015.7,4583.4z"/><path d="M6809.6,4490.4c-31.7-72.6-59-143-59-156.6c0-11.3,38.6-38.6,86.2-56.7l83.9-34l70.3,149.8l70.4,152l-70.4,38.6c-38.6,20.4-81.7,38.6-95.3,40.8C6882.2,4624.3,6843.6,4565.3,6809.6,4490.4z"/><path d="M3319.7,3966.2l-83.9-45.4l56.7-129.3c31.8-72.6,65.8-140.7,74.9-149.8c18.2-18.2,183.8,38.6,183.8,63.5c0,18.1-131.6,306.3-140.7,306.3C3406,4009.3,3365.1,3988.9,3319.7,3966.2z"/><path d="M6523.7,3866.4c-38.6-81.7-68.1-154.3-68.1-161.1c0-25,165.6-81.7,183.8-63.5c9.1,9.1,43.1,77.1,74.9,149.8l56.7,129.3l-90.8,45.4l-90.8,47.7L6523.7,3866.4z"/><path d="M1416,3378.5c-27.2-36.3-45.4-74.9-43.1-86.2c4.5-9.1,304.1-270,667.1-578.6l660.3-562.7l63.5,72.6c34,40.8,59,79.4,56.7,88.5c-9.1,22.7-1320.6,1132.3-1338.7,1132.3C1472.7,3444.3,1443.2,3414.8,1416,3378.5z"/><path d="M7851.1,2886.1c-360.8-308.6-660.3-565-664.8-574.1c-2.3-9.1,22.7-47.7,56.7-88.5l63.5-72.6l673.9,574.1l673.9,571.8l-52.2,65.8c-29.5,38.6-61.2,70.3-72.6,74.9C8518.2,3439.8,8214.1,3192.5,7851.1,2886.1z"/><path d="M3607.9,3337.7c-36.3-18.1-70.3-38.6-74.9-40.8c-2.3-2.3,25-72.6,61.3-154.3l68.1-149.8l86.2,34c47.6,20.4,88.5,38.6,93,43.1c13.6,11.3-129.3,306.3-147.5,306.3C3685.1,3374,3646.5,3358.1,3607.9,3337.7z"/><path d="M6226.4,3226.5c-38.6-81.7-65.8-152-61.3-156.6c4.5-4.5,45.4-22.7,93-43.1l86.2-34l68.1,149.8c36.3,81.7,63.6,152,61.3,154.3c-15.9,13.6-154.3,79.4-165.6,79.4C6301.3,3376.3,6262.7,3308.2,6226.4,3226.5z"/><path d="M4776.5,2647.9C3530.8,2504.9,2609.5,1368.1,2734.3,127c13.6-140.7,45.4-338.1,70.3-437.9c115.7-458.4,390.3-1007.5,746.5-1490.8c179.3-245.1,213.3-358.5,215.6-714.8v-274.6l90.8-11.3c49.9-4.5,95.3-4.5,102.1,0c29.5,27.2,6.8,571.8-29.5,710.2c-43.1,156.6-54.5,177-351.7,612.6c-304.1,447-515.1,919-605.8,1350.1c-52.2,245-52.2,694.3-2.3,914.4C3208.6,1844.6,4220.6,2573,5278,2443.7C6142.5,2339.3,6850.4,1738,7093.2,903c72.6-251.9,81.7-746.5,18.2-1052.9c-97.6-472-331.3-959.8-723.8-1511.2c-206.5-288.2-251.9-426.6-265.5-794.2c-4.5-156.6,0-295,9.1-310.9c13.6-18.1,49.9-22.7,104.4-13.6l84,13.6v204.2c0,413,18.2,462.9,356.3,957.5c281.4,415.2,524.2,934.9,619.5,1334.2c61.3,249.6,84,748.8,45.4,982.5C7263.4,1202.5,7022.9,1654,6653,2008c-392.6,374.4-832.8,580.9-1366,642.1C5057.8,2675.1,5017,2675.1,4776.5,2647.9z"/><path d="M4855.9,2273.5c-485.6-70.3-875.9-256.4-1179.9-562.7c-549.1-551.4-708-1307-442.5-2103.4c131.6-397.1,338.1-787.4,608.1-1152.7c202-274.6,267.8-440.2,310.9-778.3l13.6-108.9h102.1h102.1l-11.3,74.9c-6.8,38.6-18.2,124.8-25,186.1c-22.7,195.1-108.9,424.3-213.3,578.6c-324.5,472-401.6,596.8-503.7,801C3149.6,136,3222.2,968.8,3823.5,1563.3c626.3,621.7,1572.5,683,2285,145.2c288.2-215.6,542.3-608.1,628.5-971.2c43.1-179.3,49.9-478.8,15.9-708c-63.5-433.4-295-934.9-671.6-1459c-224.6-313.1-304-515.1-340.4-850.9l-15.9-152h99.8h99.8l34,222.4c43.1,270,106.6,413,290.4,662.6c730.6,982.5,923.5,1983.2,535.5,2745.6c-113.5,215.6-197.4,333.6-367.6,506c-344.9,347.2-785.1,542.3-1279.8,567.3C5019.3,2278,4894.5,2278,4855.9,2273.5z"/><path d="M460.7,1604.1c-13.6-49.9-18.1-95.3-11.3-102.1c6.8-9.1,79.4-34,161.1-56.7l149.8-40.8l25,90.8c15.9,47.7,22.7,93,15.9,99.8c-6.8,6.8-79.4,31.8-163.4,54.5l-149.8,40.8L460.7,1604.1z"/><path d="M9362.3,1649.5c-79.4-22.7-149.8-47.7-156.6-52.2c-22.7-25,40.8-192.9,70.3-183.8c13.6,4.5,86.2,25,158.8,45.4c138.4,38.6,152,61.3,99.9,172.5l-27.2,59L9362.3,1649.5z"/><path d="M1125.6,1422.6c-13.6-45.4-25-88.5-25-95.3c0-22.7,304.1-106.7,319.9-88.5c9.1,9.1,27.2,52.2,38.6,97.6l22.7,81.7l-165.6,45.4l-165.6,43.1L1125.6,1422.6z"/><path d="M8688.4,1463.4l-161.1-43.1l22.7-95.3c11.4-49.9,25-95.3,29.5-99.8c2.3-4.5,77.1,13.6,165.6,40.8c156.6,45.4,161.1,49.9,147.5,108.9C8858.6,1511.1,8865.4,1508.8,8688.4,1463.4z"/><path d="M1785.9,1218.4c-15.9-68.1-15.9-93,2.3-99.8c61.3-18.1,283.6-79.4,295-79.4c6.8,0,18.2,27.2,25,63.5c9.1,34,20.4,77.2,27.2,97.6c9.1,29.5-20.4,45.4-136.1,74.9c-81.7,20.4-156.6,36.3-167.9,36.3S1799.5,1270.6,1785.9,1218.4z"/><path d="M7998.6,1272.8c-68.1-18.1-127.1-36.3-129.3-38.6c-6.8-4.5,40.8-179.3,49.9-190.6c4.6-4.5,79.4,13.6,165.6,38.6l158.8,47.7l-22.7,90.8C8193.7,1322.8,8186.9,1325,7998.6,1272.8z"/><path d="M5191.7,426.5c-40.8-22.7-88.5-72.6-106.6-108.9c-47.7-93-65.8-270-40.9-385.7c20.4-88.5,18.2-99.8-34-140.7c-113.5-88.5-165.6-45.4-99.8,84c81.7,161.1,70.3,322.2-27.2,428.9c-63.5,68.1-95.3,84-188.3,93c-90.8,9.1-122.5,2.3-177-40.8c-115.7-90.8-158.8-283.6-106.7-469.7c18.2-61.3,15.9-77.2-22.7-97.6c-34-18.2-56.7-13.6-104.4,22.7c-163.4,129.3-422-11.3-383.5-211c9.1-38.6,163.4-283.6,342.6-546.8l326.7-476.5l2.3-503.7v-506h102.1h102.1v535.5v535.5l-340.4,494.7c-188.3,274.6-340.4,501.5-340.4,508.3c0,34,70.3,9.1,90.8-31.8c45.4-86.2,236-52.2,413,72.6c34,25,45.4,20.4,74.9-20.4c18.1-27.2,79.4-65.8,136.1-88.5c127.1-47.7,242.8-20.4,360.8,81.7l77.2,68.1l56.7-77.2c111.2-145.2,265.5-154.3,453.8-25c47.6,29.5,88.5,45.4,95.3,31.8c9.1-11.3-138.4-245.1-326.7-521.9l-342.6-499.2v-533.2v-531H5287h102.1v501.4v499.2l313.1,458.4c356.3,517.3,367.6,537.8,367.6,610.4c0,86.2-79.4,192.9-165.6,220.1c-84,29.5-113.4,20.4-308.6-88.5c-124.8-68.1-147.5-27.2-74.9,131.6c65.8,145.2,88.5,324.5,52.2,417.5c-29.5,77.1-149.8,154.3-240.5,154.3C5296.1,471.9,5232.6,451.4,5191.7,426.5z M5384.6,183.7c6.8-72.6-77.1-301.8-108.9-301.8c-27.2,0-52.2,215.6-34,276.8C5282.5,288.1,5373.3,303.9,5384.6,183.7z M4751.5,149.6c29.5-84-68.1-342.6-113.5-297.2c-38.6,38.6-52.2,274.6-20.4,313.1C4658.5,215.4,4728.8,206.4,4751.5,149.6z"/><path d="M1282.1-165.8c-356.2-59-717-120.3-803.2-136.1l-154.3-25l13.6-93c9.1-52.2,18.2-95.3,22.7-99.8c11.3-11.3,1704.1,272.3,1722.2,288.2c11.3,9.1,11.3,54.5,4.5,99.8C2067.2-27.3,2096.7-25.1,1282.1-165.8z"/><path d="M7919.2-131.7c-6.8-45.4-6.8-90.8,4.6-99.8c9-9.1,376.6-74.9,812.3-145.2c437.9-72.6,821.4-136.1,853.2-142.9c56.7-11.3,61.3-4.5,77.1,84c9.1,52.2,11.3,97.6,6.8,102.1C9661.8-322.3,8037.2-50,7980.4-50C7946.4-50,7930.5-70.5,7919.2-131.7z"/><path d="M2314.6-1345.7c-49.9-38.6-104.4-77.2-122.5-88.5c-29.5-15.9-18.2-43.1,79.4-177c2.3-4.6,68.1,34,145.2,86.2l138.4,93l-45.4,72.6c-25,40.8-59,74.9-74.9,77.2C2418.9-1277.6,2364.5-1307.1,2314.6-1345.7z"/><path d="M7503.9-1343.4c-27.2-36.3-49.9-70.3-49.9-77.2c0-15.9,274.6-201.9,281.4-190.6c61.3,84,106.6,158.8,102.1,163.4c-4.5,2.3-63.6,43.1-129.3,88.5c-63.5,45.4-127.1,84-136.2,84C7560.6-1275.3,7531.2-1304.8,7503.9-1343.4z"/><path d="M1747.3-1731.4c-49.9-38.6-104.4-77.1-122.5-86.2c-31.8-18.1-18.2-54.4,52.2-145.2c31.8-40.8,38.6-38.6,172.5,52.2l138.4,93l-45.4,72.6c-25,40.8-59,74.9-74.9,77.2C1851.7-1665.6,1797.2-1695.1,1747.3-1731.4z"/><path d="M8098.4-1688.3c-9.1-15.9-31.8-52.2-47.7-79.4c-31.8-45.4-25-54.4,106.7-142.9c133.9-90.8,140.7-93,172.4-52.2c45.4,56.7,81.7,122.5,72.6,129.3c-4.6,2.3-61.3,43.1-127.1,88.5C8146.1-1654.3,8123.4-1647.5,8098.4-1688.3z"/><path d="M1180-2119.4c-49.9-36.3-104.4-74.9-122.5-86.2c-27.2-13.6-22.7-31.8,18.1-99.8c29.5-45.4,56.7-81.7,61.3-81.7c6.8,0,72.6,40.8,145.2,90.8l136.1,93l-52.2,77.2c-27.2,43.1-59,77.2-72.6,77.2C1282.1-2049.1,1229.9-2080.8,1180-2119.4z"/><path d="M8640.7-2126.2l-52.2-77.2l136.2-93c72.6-49.9,138.4-90.8,145.2-90.8c13.6,0,111.2,158.8,102.1,167.9c-34,27.2-260.9,172.4-270,172.4C8695.2-2046.8,8667.9-2083.1,8640.7-2126.2z"/><path d="M3778.1-3056.6V-3204h102.1c86.2,0,102.1,6.8,102.1,45.4c0,45.4,15.9,45.4,1066.5,45.4c1050.6,0,1066.5,0,1066.5-45.4c0-38.6,15.9-45.4,102.1-45.4h102.1v147.5v147.5H5048.8H3778.1V-3056.6z"/><path d="M3778.1-3657.9v-226.9h102.1h102.1v124.8v124.8h260.9h260.9v102.1v102.1h-363.1h-363V-3657.9z"/><path d="M5343.7-3533.1v-102.1h385.8h385.7V-3760v-124.8h102.1h102.1v226.9v226.9h-487.8h-487.9V-3533.1z"/><path d="M3778.1-4059.5c2.3-197.4,195.1-428.8,413-494.7c63.5-18.1,152-68.1,199.7-111.2c129.3-115.7,220.1-131.6,712.5-122.5c469.7,6.8,481.1,11.4,633.1,145.2c45.4,43.1,99.8,77.2,118,77.2c70.4,0,258.7,113.5,335.8,204.2c74.9,88.5,129.3,231.5,129.3,338.1c0,47.6-11.3,47.6-510.5,47.6h-510.5v-102.1v-102.1h390.3h388l-54.5-59c-68.1-74.9-213.3-143-304-145.2c-52.2-2.3-79.4-20.4-113.5-74.9c-25-38.6-70.4-84-102.1-99.8c-72.6-36.3-801-40.8-903.1-4.5c-38.6,13.6-93,59-118,99.8c-38.6,61.3-63.5,74.9-156.6,88.5c-106.6,13.6-297.2,124.8-297.2,172.4c0,11.3,115.7,25,267.7,27.2l265.5,6.8l6.8,97.6l6.8,95.3h-397.1h-399.4V-4059.5z"/></g></g>
</svg>